<svg width="24" height="24" viewBox="0 0 24 24" fill="none" xmlns="http://www.w3.org/2000/svg">
<path d="M16.6154 2.76904H7.38467C4.83567 2.76904 2.76929 4.83542 2.76929 7.38443V16.6152C2.76929 19.1642 4.83567 21.2306 7.38467 21.2306H16.6154C19.1644 21.2306 21.2308 19.1642 21.2308 16.6152V7.38443C21.2308 4.83542 19.1644 2.76904 16.6154 2.76904Z" stroke="#F8F8F8" stroke-width="2" stroke-linecap="round" stroke-linejoin="round"/>
<path d="M15.6923 11.4183C15.8063 12.1865 15.675 12.9711 15.3173 13.6605C14.9597 14.3498 14.3937 14.9088 13.7 15.258C13.0063 15.6072 12.2201 15.7287 11.4534 15.6053C10.6866 15.4819 9.97827 15.1199 9.42911 14.5707C8.87995 14.0216 8.51794 13.3133 8.39455 12.5465C8.27117 11.7797 8.39271 10.9936 8.74187 10.2999C9.09103 9.60615 9.65005 9.0402 10.3394 8.68251C11.0288 8.32482 11.8133 8.1936 12.5816 8.30752C13.3652 8.42372 14.0907 8.78887 14.6508 9.34903C15.211 9.9092 15.5761 10.6347 15.6923 11.4183Z" stroke="#F8F8F8" stroke-width="2" stroke-linecap="round" stroke-linejoin="round"/>
<path d="M17.0769 6.92285H17.0869" stroke="#F8F8F8" stroke-width="2" stroke-linecap="round" stroke-linejoin="round"/>
</svg>
