<svg width="262" height="55" viewBox="0 0 262 55" fill="none" xmlns="http://www.w3.org/2000/svg">
<path d="M14.052 3.3H8.82V18H5.592V3.3H0.36V0.647999H14.052V3.3ZM18.6077 7.008C19.0877 6.56 19.6157 6.196 20.1917 5.916C20.7677 5.636 21.4437 5.496 22.2197 5.496C22.8917 5.496 23.4877 5.612 24.0077 5.844C24.5277 6.068 24.9597 6.388 25.3037 6.804C25.6557 7.212 25.9197 7.704 26.0957 8.28C26.2797 8.848 26.3717 9.476 26.3717 10.164V18H23.4077V10.164C23.4077 9.412 23.2357 8.832 22.8917 8.424C22.5477 8.008 22.0237 7.8 21.3197 7.8C20.8077 7.8 20.3277 7.916 19.8797 8.148C19.4317 8.38 19.0077 8.696 18.6077 9.096V18H15.6437V0.167999H18.6077V7.008ZM37.1226 10.428C37.1226 10.044 37.0666 9.684 36.9546 9.348C36.8506 9.004 36.6906 8.704 36.4746 8.448C36.2586 8.192 35.9826 7.992 35.6466 7.848C35.3186 7.696 34.9346 7.62 34.4946 7.62C33.6386 7.62 32.9626 7.864 32.4666 8.352C31.9786 8.84 31.6666 9.532 31.5306 10.428H37.1226ZM31.4706 12.216C31.5186 12.848 31.6306 13.396 31.8066 13.86C31.9826 14.316 32.2146 14.696 32.5026 15C32.7906 15.296 33.1306 15.52 33.5226 15.672C33.9226 15.816 34.3626 15.888 34.8426 15.888C35.3226 15.888 35.7346 15.832 36.0786 15.72C36.4306 15.608 36.7346 15.484 36.9906 15.348C37.2546 15.212 37.4826 15.088 37.6746 14.976C37.8746 14.864 38.0666 14.808 38.2506 14.808C38.4986 14.808 38.6826 14.9 38.8026 15.084L39.6546 16.164C39.3266 16.548 38.9586 16.872 38.5506 17.136C38.1426 17.392 37.7146 17.6 37.2666 17.76C36.8266 17.912 36.3746 18.02 35.9106 18.084C35.4546 18.148 35.0106 18.18 34.5786 18.18C33.7226 18.18 32.9266 18.04 32.1906 17.76C31.4546 17.472 30.8146 17.052 30.2706 16.5C29.7266 15.94 29.2986 15.252 28.9866 14.436C28.6746 13.612 28.5186 12.66 28.5186 11.58C28.5186 10.74 28.6546 9.952 28.9266 9.216C29.1986 8.472 29.5866 7.828 30.0906 7.284C30.6026 6.732 31.2226 6.296 31.9506 5.976C32.6866 5.656 33.5146 5.496 34.4346 5.496C35.2106 5.496 35.9266 5.62 36.5826 5.868C37.2386 6.116 37.8026 6.48 38.2746 6.96C38.7466 7.432 39.1146 8.016 39.3786 8.712C39.6506 9.4 39.7866 10.188 39.7866 11.076C39.7866 11.524 39.7386 11.828 39.6426 11.988C39.5466 12.14 39.3626 12.216 39.0906 12.216H31.4706ZM62.9428 0.647999V18H61.2868C61.0308 18 60.8148 17.96 60.6388 17.88C60.4708 17.792 60.3068 17.648 60.1468 17.448L51.0868 5.88C51.1348 6.408 51.1588 6.896 51.1588 7.344V18H48.3148V0.647999H50.0068C50.1428 0.647999 50.2588 0.655999 50.3548 0.671999C50.4588 0.679999 50.5468 0.703999 50.6188 0.743999C50.6988 0.776 50.7748 0.828 50.8468 0.899999C50.9188 0.963999 50.9988 1.052 51.0868 1.164L60.1828 12.78C60.1588 12.5 60.1388 12.224 60.1228 11.952C60.1068 11.68 60.0988 11.428 60.0988 11.196V0.647999H62.9428ZM71.412 5.496C72.324 5.496 73.152 5.644 73.896 5.94C74.648 6.236 75.288 6.656 75.816 7.2C76.352 7.744 76.764 8.408 77.052 9.192C77.34 9.976 77.484 10.852 77.484 11.82C77.484 12.796 77.34 13.676 77.052 14.46C76.764 15.244 76.352 15.912 75.816 16.464C75.288 17.016 74.648 17.44 73.896 17.736C73.152 18.032 72.324 18.18 71.412 18.18C70.492 18.18 69.656 18.032 68.904 17.736C68.152 17.44 67.508 17.016 66.972 16.464C66.444 15.912 66.032 15.244 65.736 14.46C65.448 13.676 65.304 12.796 65.304 11.82C65.304 10.852 65.448 9.976 65.736 9.192C66.032 8.408 66.444 7.744 66.972 7.2C67.508 6.656 68.152 6.236 68.904 5.94C69.656 5.644 70.492 5.496 71.412 5.496ZM71.412 15.9C72.436 15.9 73.192 15.556 73.68 14.868C74.176 14.18 74.424 13.172 74.424 11.844C74.424 10.516 74.176 9.504 73.68 8.808C73.192 8.112 72.436 7.764 71.412 7.764C70.372 7.764 69.6 8.116 69.096 8.82C68.6 9.516 68.352 10.524 68.352 11.844C68.352 13.164 68.6 14.172 69.096 14.868C69.6 15.556 70.372 15.9 71.412 15.9ZM82.5413 7.824C82.9253 7.088 83.3813 6.512 83.9093 6.096C84.4373 5.672 85.0613 5.46 85.7812 5.46C86.3493 5.46 86.8053 5.584 87.1493 5.832L86.9573 8.052C86.9173 8.196 86.8573 8.3 86.7773 8.364C86.7053 8.42 86.6053 8.448 86.4773 8.448C86.3573 8.448 86.1773 8.428 85.9373 8.388C85.7053 8.348 85.4773 8.328 85.2533 8.328C84.9253 8.328 84.6333 8.376 84.3773 8.472C84.1213 8.568 83.8893 8.708 83.6813 8.892C83.4813 9.068 83.3013 9.284 83.1413 9.54C82.9893 9.796 82.8453 10.088 82.7093 10.416V18H79.7453V5.688H81.4853C81.7893 5.688 82.0013 5.744 82.1213 5.856C82.2413 5.96 82.3213 6.152 82.3613 6.432L82.5413 7.824ZM89.5624 18V7.92L88.4944 7.752C88.2624 7.704 88.0744 7.624 87.9304 7.512C87.7944 7.392 87.7264 7.224 87.7264 7.008V5.796H89.5624V4.884C89.5624 4.18 89.6664 3.548 89.8744 2.988C90.0904 2.428 90.3944 1.952 90.7864 1.56C91.1864 1.168 91.6704 0.868 92.2384 0.659999C92.8064 0.451999 93.4464 0.347999 94.1584 0.347999C94.7264 0.347999 95.2544 0.423999 95.7424 0.576L95.6824 2.064C95.6744 2.176 95.6424 2.268 95.5864 2.34C95.5304 2.404 95.4544 2.456 95.3584 2.496C95.2704 2.528 95.1664 2.552 95.0464 2.568C94.9264 2.576 94.7984 2.58 94.6624 2.58C94.3104 2.58 93.9944 2.62 93.7144 2.7C93.4424 2.772 93.2104 2.904 93.0184 3.096C92.8264 3.28 92.6784 3.528 92.5744 3.84C92.4784 4.144 92.4304 4.524 92.4304 4.98V5.796H95.6344V7.908H92.5264V18H89.5624ZM102.42 5.496C103.332 5.496 104.16 5.644 104.904 5.94C105.656 6.236 106.296 6.656 106.824 7.2C107.36 7.744 107.772 8.408 108.06 9.192C108.348 9.976 108.492 10.852 108.492 11.82C108.492 12.796 108.348 13.676 108.06 14.46C107.772 15.244 107.36 15.912 106.824 16.464C106.296 17.016 105.656 17.44 104.904 17.736C104.16 18.032 103.332 18.18 102.42 18.18C101.5 18.18 100.664 18.032 99.9118 17.736C99.1598 17.44 98.5158 17.016 97.9798 16.464C97.4518 15.912 97.0398 15.244 96.7438 14.46C96.4558 13.676 96.3118 12.796 96.3118 11.82C96.3118 10.852 96.4558 9.976 96.7438 9.192C97.0398 8.408 97.4518 7.744 97.9798 7.2C98.5158 6.656 99.1598 6.236 99.9118 5.94C100.664 5.644 101.5 5.496 102.42 5.496ZM102.42 15.9C103.444 15.9 104.2 15.556 104.688 14.868C105.184 14.18 105.432 13.172 105.432 11.844C105.432 10.516 105.184 9.504 104.688 8.808C104.2 8.112 103.444 7.764 102.42 7.764C101.38 7.764 100.608 8.116 100.104 8.82C99.6078 9.516 99.3598 10.524 99.3598 11.844C99.3598 13.164 99.6078 14.172 100.104 14.868C100.608 15.556 101.38 15.9 102.42 15.9ZM113.753 0.167999V18H110.789V0.167999H113.753ZM119.67 0.167999V10.38H120.222C120.422 10.38 120.578 10.356 120.69 10.308C120.81 10.252 120.93 10.144 121.05 9.984L124.11 6.204C124.238 6.036 124.378 5.908 124.53 5.82C124.69 5.732 124.894 5.688 125.142 5.688H127.854L124.026 10.26C123.754 10.62 123.458 10.896 123.138 11.088C123.306 11.208 123.454 11.348 123.582 11.508C123.718 11.668 123.846 11.84 123.966 12.024L128.07 18H125.394C125.162 18 124.962 17.964 124.794 17.892C124.626 17.812 124.486 17.672 124.374 17.472L121.23 12.804C121.118 12.62 121.002 12.5 120.882 12.444C120.762 12.388 120.582 12.36 120.342 12.36H119.67V18H116.706V0.167999H119.67ZM11.172 35.804C11.076 35.972 10.972 36.096 10.86 36.176C10.756 36.248 10.624 36.284 10.464 36.284C10.296 36.284 10.112 36.224 9.912 36.104C9.72 35.976 9.488 35.836 9.216 35.684C8.944 35.532 8.624 35.396 8.256 35.276C7.896 35.148 7.468 35.084 6.972 35.084C6.524 35.084 6.132 35.14 5.796 35.252C5.46 35.356 5.176 35.504 4.944 35.696C4.72 35.888 4.552 36.12 4.44 36.392C4.328 36.656 4.272 36.948 4.272 37.268C4.272 37.676 4.384 38.016 4.608 38.288C4.84 38.56 5.144 38.792 5.52 38.984C5.896 39.176 6.324 39.348 6.804 39.5C7.284 39.652 7.776 39.816 8.28 39.992C8.784 40.16 9.276 40.36 9.756 40.592C10.236 40.816 10.664 41.104 11.04 41.456C11.416 41.8 11.716 42.224 11.94 42.728C12.172 43.232 12.288 43.844 12.288 44.564C12.288 45.348 12.152 46.084 11.88 46.772C11.616 47.452 11.224 48.048 10.704 48.56C10.192 49.064 9.564 49.464 8.82 49.76C8.076 50.048 7.224 50.192 6.264 50.192C5.712 50.192 5.168 50.136 4.632 50.024C4.096 49.92 3.58 49.768 3.084 49.568C2.596 49.368 2.136 49.128 1.704 48.848C1.272 48.568 0.888 48.256 0.552 47.912L1.5 46.364C1.58 46.252 1.684 46.16 1.812 46.088C1.94 46.008 2.076 45.968 2.22 45.968C2.42 45.968 2.636 46.052 2.868 46.22C3.1 46.38 3.376 46.56 3.696 46.76C4.016 46.96 4.388 47.144 4.812 47.312C5.244 47.472 5.76 47.552 6.36 47.552C7.28 47.552 7.992 47.336 8.496 46.904C9 46.464 9.252 45.836 9.252 45.02C9.252 44.564 9.136 44.192 8.904 43.904C8.68 43.616 8.38 43.376 8.004 43.184C7.628 42.984 7.2 42.816 6.72 42.68C6.24 42.544 5.752 42.396 5.256 42.236C4.76 42.076 4.272 41.884 3.792 41.66C3.312 41.436 2.884 41.144 2.508 40.784C2.132 40.424 1.828 39.976 1.596 39.44C1.372 38.896 1.26 38.228 1.26 37.436C1.26 36.804 1.384 36.188 1.632 35.588C1.888 34.988 2.256 34.456 2.736 33.992C3.216 33.528 3.808 33.156 4.512 32.876C5.216 32.596 6.024 32.456 6.936 32.456C7.96 32.456 8.904 32.616 9.768 32.936C10.632 33.256 11.368 33.704 11.976 34.28L11.172 35.804ZM18.2008 50.192C17.1288 50.192 16.3048 49.892 15.7288 49.292C15.1608 48.684 14.8768 47.848 14.8768 46.784V39.908H13.6168C13.4568 39.908 13.3208 39.856 13.2088 39.752C13.0968 39.648 13.0408 39.492 13.0408 39.284V38.108L15.0208 37.784L15.6448 34.424C15.6848 34.264 15.7608 34.14 15.8728 34.052C15.9848 33.964 16.1288 33.92 16.3048 33.92H17.8408V37.796H21.1288V39.908H17.8408V46.58C17.8408 46.964 17.9328 47.264 18.1168 47.48C18.3088 47.696 18.5688 47.804 18.8968 47.804C19.0808 47.804 19.2328 47.784 19.3528 47.744C19.4808 47.696 19.5888 47.648 19.6768 47.6C19.7728 47.552 19.8568 47.508 19.9288 47.468C20.0008 47.42 20.0728 47.396 20.1448 47.396C20.2328 47.396 20.3048 47.42 20.3608 47.468C20.4168 47.508 20.4768 47.572 20.5408 47.66L21.4288 49.1C20.9968 49.46 20.5008 49.732 19.9408 49.916C19.3808 50.1 18.8008 50.192 18.2008 50.192ZM29.5305 44.744C28.6745 44.784 27.9545 44.86 27.3705 44.972C26.7865 45.076 26.3185 45.212 25.9665 45.38C25.6145 45.548 25.3625 45.744 25.2105 45.968C25.0585 46.192 24.9825 46.436 24.9825 46.7C24.9825 47.22 25.1345 47.592 25.4385 47.816C25.7505 48.04 26.1545 48.152 26.6505 48.152C27.2585 48.152 27.7825 48.044 28.2225 47.828C28.6705 47.604 29.1065 47.268 29.5305 46.82V44.744ZM22.7385 39.404C24.1545 38.108 25.8585 37.46 27.8505 37.46C28.5705 37.46 29.2145 37.58 29.7825 37.82C30.3505 38.052 30.8305 38.38 31.2225 38.804C31.6145 39.22 31.9105 39.72 32.1105 40.304C32.3185 40.888 32.4225 41.528 32.4225 42.224V50H31.0785C30.7985 50 30.5825 49.96 30.4305 49.88C30.2785 49.792 30.1585 49.62 30.0705 49.364L29.8065 48.476C29.4945 48.756 29.1905 49.004 28.8945 49.22C28.5985 49.428 28.2905 49.604 27.9705 49.748C27.6505 49.892 27.3065 50 26.9385 50.072C26.5785 50.152 26.1785 50.192 25.7385 50.192C25.2185 50.192 24.7385 50.124 24.2985 49.988C23.8585 49.844 23.4785 49.632 23.1585 49.352C22.8385 49.072 22.5905 48.724 22.4145 48.308C22.2385 47.892 22.1505 47.408 22.1505 46.856C22.1505 46.544 22.2025 46.236 22.3065 45.932C22.4105 45.62 22.5785 45.324 22.8105 45.044C23.0505 44.764 23.3585 44.5 23.7345 44.252C24.1105 44.004 24.5705 43.788 25.1145 43.604C25.6665 43.42 26.3065 43.272 27.0345 43.16C27.7625 43.04 28.5945 42.968 29.5305 42.944V42.224C29.5305 41.4 29.3545 40.792 29.0025 40.4C28.6505 40 28.1425 39.8 27.4785 39.8C26.9985 39.8 26.5985 39.856 26.2785 39.968C25.9665 40.08 25.6905 40.208 25.4505 40.352C25.2105 40.488 24.9905 40.612 24.7905 40.724C24.5985 40.836 24.3825 40.892 24.1425 40.892C23.9345 40.892 23.7585 40.84 23.6145 40.736C23.4705 40.624 23.3545 40.496 23.2665 40.352L22.7385 39.404ZM39.1539 50.192C38.0819 50.192 37.2579 49.892 36.6819 49.292C36.1139 48.684 35.8299 47.848 35.8299 46.784V39.908H34.5699C34.4099 39.908 34.2739 39.856 34.1619 39.752C34.0499 39.648 33.9939 39.492 33.9939 39.284V38.108L35.9739 37.784L36.5979 34.424C36.6379 34.264 36.7139 34.14 36.8259 34.052C36.9379 33.964 37.0819 33.92 37.2579 33.92H38.7939V37.796H42.0819V39.908H38.7939V46.58C38.7939 46.964 38.8859 47.264 39.0699 47.48C39.2619 47.696 39.5219 47.804 39.8499 47.804C40.0339 47.804 40.1859 47.784 40.3059 47.744C40.4339 47.696 40.5419 47.648 40.6299 47.6C40.7259 47.552 40.8099 47.508 40.8819 47.468C40.9539 47.42 41.0259 47.396 41.0979 47.396C41.1859 47.396 41.2579 47.42 41.3139 47.468C41.3699 47.508 41.4299 47.572 41.4939 47.66L42.3819 49.1C41.9499 49.46 41.4539 49.732 40.8939 49.916C40.3339 50.1 39.7539 50.192 39.1539 50.192ZM51.8179 42.428C51.8179 42.044 51.7619 41.684 51.6499 41.348C51.5459 41.004 51.3859 40.704 51.1699 40.448C50.9539 40.192 50.6779 39.992 50.3419 39.848C50.0139 39.696 49.6299 39.62 49.1899 39.62C48.3339 39.62 47.6579 39.864 47.1619 40.352C46.6739 40.84 46.3619 41.532 46.2259 42.428H51.8179ZM46.1659 44.216C46.2139 44.848 46.3259 45.396 46.5019 45.86C46.6779 46.316 46.9099 46.696 47.1979 47C47.4859 47.296 47.8259 47.52 48.2179 47.672C48.6179 47.816 49.0579 47.888 49.5379 47.888C50.0179 47.888 50.4299 47.832 50.7739 47.72C51.1259 47.608 51.4299 47.484 51.6859 47.348C51.9499 47.212 52.1779 47.088 52.3699 46.976C52.5699 46.864 52.7619 46.808 52.9459 46.808C53.1939 46.808 53.3779 46.9 53.4979 47.084L54.3499 48.164C54.0219 48.548 53.6539 48.872 53.2459 49.136C52.8379 49.392 52.4099 49.6 51.9619 49.76C51.5219 49.912 51.0699 50.02 50.6059 50.084C50.1499 50.148 49.7059 50.18 49.2739 50.18C48.4179 50.18 47.6219 50.04 46.8859 49.76C46.1499 49.472 45.5099 49.052 44.9659 48.5C44.4219 47.94 43.9939 47.252 43.6819 46.436C43.3699 45.612 43.2139 44.66 43.2139 43.58C43.2139 42.74 43.3499 41.952 43.6219 41.216C43.8939 40.472 44.2819 39.828 44.7859 39.284C45.2979 38.732 45.9179 38.296 46.6459 37.976C47.3819 37.656 48.2099 37.496 49.1299 37.496C49.9059 37.496 50.6219 37.62 51.2779 37.868C51.9339 38.116 52.4979 38.48 52.9699 38.96C53.4419 39.432 53.8099 40.016 54.0739 40.712C54.3459 41.4 54.4819 42.188 54.4819 43.076C54.4819 43.524 54.4339 43.828 54.3379 43.988C54.2419 44.14 54.0579 44.216 53.7859 44.216H46.1659ZM69.9941 47.396C70.6181 47.396 71.1741 47.292 71.6621 47.084C72.1581 46.876 72.5741 46.584 72.9101 46.208C73.2461 45.832 73.5021 45.376 73.6781 44.84C73.8621 44.304 73.9541 43.704 73.9541 43.04V32.648H77.1821V43.04C77.1821 44.072 77.0141 45.028 76.6781 45.908C76.3501 46.78 75.8741 47.536 75.2501 48.176C74.6341 48.808 73.8821 49.304 72.9941 49.664C72.1061 50.016 71.1061 50.192 69.9941 50.192C68.8741 50.192 67.8701 50.016 66.9821 49.664C66.0941 49.304 65.3381 48.808 64.7141 48.176C64.0981 47.536 63.6221 46.78 63.2861 45.908C62.9581 45.028 62.7941 44.072 62.7941 43.04V32.648H66.0221V43.028C66.0221 43.692 66.1101 44.292 66.2861 44.828C66.4701 45.364 66.7301 45.824 67.0661 46.208C67.4101 46.584 67.8261 46.876 68.3141 47.084C68.8101 47.292 69.3701 47.396 69.9941 47.396ZM82.7282 39.2C82.9762 38.952 83.2362 38.724 83.5082 38.516C83.7882 38.3 84.0802 38.12 84.3842 37.976C84.6962 37.824 85.0282 37.708 85.3802 37.628C85.7322 37.54 86.1162 37.496 86.5322 37.496C87.2042 37.496 87.8002 37.612 88.3202 37.844C88.8402 38.068 89.2722 38.388 89.6162 38.804C89.9682 39.212 90.2322 39.704 90.4082 40.28C90.5922 40.848 90.6842 41.476 90.6842 42.164V50H87.7202V42.164C87.7202 41.412 87.5482 40.832 87.2042 40.424C86.8602 40.008 86.3362 39.8 85.6322 39.8C85.1202 39.8 84.6402 39.916 84.1922 40.148C83.7442 40.38 83.3202 40.696 82.9202 41.096V50H79.9562V37.688H81.7682C82.1522 37.688 82.4042 37.868 82.5242 38.228L82.7282 39.2ZM96.5751 37.688V50H93.5991V37.688H96.5751ZM96.9831 34.1C96.9831 34.356 96.9311 34.596 96.8271 34.82C96.7231 35.044 96.5831 35.24 96.4071 35.408C96.2391 35.576 96.0391 35.712 95.8071 35.816C95.5751 35.912 95.3271 35.96 95.0631 35.96C94.8071 35.96 94.5631 35.912 94.3311 35.816C94.1071 35.712 93.9111 35.576 93.7431 35.408C93.5751 35.24 93.4391 35.044 93.3351 34.82C93.2391 34.596 93.1911 34.356 93.1911 34.1C93.1911 33.836 93.2391 33.588 93.3351 33.356C93.4391 33.124 93.5751 32.924 93.7431 32.756C93.9111 32.588 94.1071 32.456 94.3311 32.36C94.5631 32.256 94.8071 32.204 95.0631 32.204C95.3271 32.204 95.5751 32.256 95.8071 32.36C96.0391 32.456 96.2391 32.588 96.4071 32.756C96.5831 32.924 96.7231 33.124 96.8271 33.356C96.9311 33.588 96.9831 33.836 96.9831 34.1ZM110.697 37.688L105.813 50H103.125L98.2408 37.688H100.689C100.913 37.688 101.097 37.74 101.241 37.844C101.393 37.948 101.493 38.08 101.541 38.24L103.917 44.816C104.045 45.2 104.157 45.576 104.253 45.944C104.349 46.312 104.433 46.68 104.505 47.048C104.585 46.68 104.673 46.312 104.769 45.944C104.865 45.576 104.981 45.2 105.117 44.816L107.541 38.24C107.597 38.08 107.697 37.948 107.841 37.844C107.985 37.74 108.157 37.688 108.357 37.688H110.697ZM119.834 42.428C119.834 42.044 119.778 41.684 119.666 41.348C119.562 41.004 119.402 40.704 119.186 40.448C118.97 40.192 118.694 39.992 118.358 39.848C118.03 39.696 117.646 39.62 117.206 39.62C116.35 39.62 115.674 39.864 115.178 40.352C114.69 40.84 114.378 41.532 114.242 42.428H119.834ZM114.182 44.216C114.23 44.848 114.342 45.396 114.518 45.86C114.694 46.316 114.926 46.696 115.214 47C115.502 47.296 115.842 47.52 116.234 47.672C116.634 47.816 117.074 47.888 117.554 47.888C118.034 47.888 118.446 47.832 118.79 47.72C119.142 47.608 119.446 47.484 119.702 47.348C119.966 47.212 120.194 47.088 120.386 46.976C120.586 46.864 120.778 46.808 120.962 46.808C121.21 46.808 121.394 46.9 121.514 47.084L122.366 48.164C122.038 48.548 121.67 48.872 121.262 49.136C120.854 49.392 120.426 49.6 119.978 49.76C119.538 49.912 119.086 50.02 118.622 50.084C118.166 50.148 117.722 50.18 117.29 50.18C116.434 50.18 115.638 50.04 114.902 49.76C114.166 49.472 113.526 49.052 112.982 48.5C112.438 47.94 112.01 47.252 111.698 46.436C111.386 45.612 111.229 44.66 111.229 43.58C111.229 42.74 111.366 41.952 111.638 41.216C111.91 40.472 112.298 39.828 112.802 39.284C113.314 38.732 113.934 38.296 114.662 37.976C115.398 37.656 116.226 37.496 117.146 37.496C117.922 37.496 118.638 37.62 119.294 37.868C119.95 38.116 120.514 38.48 120.986 38.96C121.458 39.432 121.826 40.016 122.09 40.712C122.362 41.4 122.497 42.188 122.497 43.076C122.497 43.524 122.45 43.828 122.354 43.988C122.258 44.14 122.074 44.216 121.802 44.216H114.182ZM127.518 39.824C127.902 39.088 128.358 38.512 128.886 38.096C129.414 37.672 130.038 37.46 130.758 37.46C131.326 37.46 131.782 37.584 132.126 37.832L131.934 40.052C131.894 40.196 131.834 40.3 131.754 40.364C131.682 40.42 131.582 40.448 131.454 40.448C131.334 40.448 131.154 40.428 130.914 40.388C130.682 40.348 130.454 40.328 130.23 40.328C129.902 40.328 129.61 40.376 129.354 40.472C129.098 40.568 128.866 40.708 128.658 40.892C128.458 41.068 128.278 41.284 128.118 41.54C127.966 41.796 127.822 42.088 127.686 42.416V50H124.722V37.688H126.462C126.766 37.688 126.978 37.744 127.098 37.856C127.218 37.96 127.298 38.152 127.338 38.432L127.518 39.824ZM141.14 40.088C141.06 40.216 140.976 40.308 140.888 40.364C140.8 40.412 140.688 40.436 140.552 40.436C140.408 40.436 140.252 40.396 140.084 40.316C139.924 40.236 139.736 40.148 139.52 40.052C139.304 39.948 139.056 39.856 138.776 39.776C138.504 39.696 138.18 39.656 137.804 39.656C137.22 39.656 136.76 39.78 136.424 40.028C136.096 40.276 135.932 40.6 135.932 41C135.932 41.264 136.016 41.488 136.184 41.672C136.36 41.848 136.588 42.004 136.868 42.14C137.156 42.276 137.48 42.4 137.84 42.512C138.2 42.616 138.564 42.732 138.932 42.86C139.308 42.988 139.676 43.136 140.036 43.304C140.396 43.464 140.716 43.672 140.996 43.928C141.284 44.176 141.512 44.476 141.68 44.828C141.856 45.18 141.944 45.604 141.944 46.1C141.944 46.692 141.836 47.24 141.62 47.744C141.412 48.24 141.1 48.672 140.684 49.04C140.268 49.4 139.752 49.684 139.136 49.892C138.528 50.092 137.824 50.192 137.024 50.192C136.6 50.192 136.184 50.152 135.776 50.072C135.376 50 134.988 49.896 134.612 49.76C134.244 49.624 133.9 49.464 133.58 49.28C133.268 49.096 132.992 48.896 132.752 48.68L133.436 47.552C133.524 47.416 133.628 47.312 133.748 47.24C133.868 47.168 134.02 47.132 134.204 47.132C134.388 47.132 134.56 47.184 134.72 47.288C134.888 47.392 135.08 47.504 135.296 47.624C135.512 47.744 135.764 47.856 136.052 47.96C136.348 48.064 136.72 48.116 137.168 48.116C137.52 48.116 137.82 48.076 138.068 47.996C138.324 47.908 138.532 47.796 138.692 47.66C138.86 47.524 138.98 47.368 139.052 47.192C139.132 47.008 139.172 46.82 139.172 46.628C139.172 46.34 139.084 46.104 138.908 45.92C138.74 45.736 138.512 45.576 138.224 45.44C137.944 45.304 137.62 45.184 137.252 45.08C136.892 44.968 136.52 44.848 136.136 44.72C135.76 44.592 135.388 44.444 135.02 44.276C134.66 44.1 134.336 43.88 134.048 43.616C133.768 43.352 133.54 43.028 133.364 42.644C133.196 42.26 133.112 41.796 133.112 41.252C133.112 40.748 133.212 40.268 133.412 39.812C133.612 39.356 133.904 38.96 134.288 38.624C134.68 38.28 135.164 38.008 135.74 37.808C136.324 37.6 136.996 37.496 137.756 37.496C138.604 37.496 139.376 37.636 140.072 37.916C140.768 38.196 141.348 38.564 141.812 39.02L141.14 40.088ZM147.247 37.688V50H144.271V37.688H147.247ZM147.655 34.1C147.655 34.356 147.603 34.596 147.499 34.82C147.395 35.044 147.255 35.24 147.079 35.408C146.911 35.576 146.711 35.712 146.479 35.816C146.247 35.912 145.999 35.96 145.735 35.96C145.479 35.96 145.235 35.912 145.003 35.816C144.779 35.712 144.583 35.576 144.415 35.408C144.247 35.24 144.111 35.044 144.007 34.82C143.911 34.596 143.863 34.356 143.863 34.1C143.863 33.836 143.911 33.588 144.007 33.356C144.111 33.124 144.247 32.924 144.415 32.756C144.583 32.588 144.779 32.456 145.003 32.36C145.235 32.256 145.479 32.204 145.735 32.204C145.999 32.204 146.247 32.256 146.479 32.36C146.711 32.456 146.911 32.588 147.079 32.756C147.255 32.924 147.395 33.124 147.499 33.356C147.603 33.588 147.655 33.836 147.655 34.1ZM154.373 50.192C153.301 50.192 152.477 49.892 151.901 49.292C151.333 48.684 151.049 47.848 151.049 46.784V39.908H149.789C149.629 39.908 149.493 39.856 149.381 39.752C149.269 39.648 149.213 39.492 149.213 39.284V38.108L151.193 37.784L151.817 34.424C151.857 34.264 151.933 34.14 152.045 34.052C152.157 33.964 152.301 33.92 152.477 33.92H154.013V37.796H157.301V39.908H154.013V46.58C154.013 46.964 154.105 47.264 154.289 47.48C154.481 47.696 154.741 47.804 155.069 47.804C155.253 47.804 155.405 47.784 155.525 47.744C155.653 47.696 155.761 47.648 155.849 47.6C155.945 47.552 156.029 47.508 156.101 47.468C156.173 47.42 156.245 47.396 156.317 47.396C156.405 47.396 156.477 47.42 156.533 47.468C156.589 47.508 156.649 47.572 156.713 47.66L157.601 49.1C157.169 49.46 156.673 49.732 156.113 49.916C155.553 50.1 154.973 50.192 154.373 50.192ZM170.382 37.688L163.674 53.384C163.586 53.592 163.47 53.748 163.326 53.852C163.19 53.964 162.978 54.02 162.69 54.02H160.482L162.786 49.076L157.806 37.688H160.41C160.642 37.688 160.822 37.744 160.95 37.856C161.086 37.968 161.186 38.096 161.25 38.24L163.866 44.624C163.954 44.84 164.026 45.056 164.082 45.272C164.146 45.488 164.206 45.708 164.262 45.932C164.334 45.708 164.406 45.488 164.478 45.272C164.55 45.048 164.63 44.828 164.718 44.612L167.19 38.24C167.254 38.08 167.358 37.948 167.502 37.844C167.654 37.74 167.822 37.688 168.006 37.688H170.382ZM180.045 46.808C180.381 47.216 180.745 47.504 181.137 47.672C181.537 47.84 181.957 47.924 182.397 47.924C182.853 47.924 183.261 47.844 183.621 47.684C183.989 47.516 184.301 47.26 184.557 46.916C184.813 46.564 185.009 46.12 185.145 45.584C185.281 45.04 185.349 44.392 185.349 43.64C185.349 42.288 185.125 41.312 184.677 40.712C184.229 40.104 183.585 39.8 182.745 39.8C182.177 39.8 181.681 39.932 181.257 40.196C180.833 40.452 180.429 40.816 180.045 41.288V46.808ZM180.045 39.2C180.541 38.68 181.089 38.268 181.689 37.964C182.297 37.652 182.989 37.496 183.765 37.496C184.477 37.496 185.117 37.636 185.685 37.916C186.261 38.196 186.749 38.6 187.149 39.128C187.557 39.648 187.869 40.28 188.085 41.024C188.301 41.768 188.409 42.604 188.409 43.532C188.409 44.532 188.285 45.44 188.037 46.256C187.789 47.072 187.433 47.772 186.969 48.356C186.513 48.932 185.961 49.38 185.313 49.7C184.665 50.02 183.945 50.18 183.153 50.18C182.769 50.18 182.421 50.14 182.109 50.06C181.797 49.988 181.509 49.884 181.245 49.748C180.981 49.612 180.737 49.448 180.513 49.256C180.297 49.056 180.089 48.836 179.889 48.596L179.757 49.424C179.709 49.632 179.625 49.78 179.505 49.868C179.393 49.956 179.237 50 179.037 50H177.081V32.168H180.045V39.2ZM197.202 44.744C196.346 44.784 195.626 44.86 195.042 44.972C194.458 45.076 193.99 45.212 193.638 45.38C193.286 45.548 193.034 45.744 192.882 45.968C192.73 46.192 192.654 46.436 192.654 46.7C192.654 47.22 192.806 47.592 193.11 47.816C193.422 48.04 193.826 48.152 194.322 48.152C194.93 48.152 195.454 48.044 195.894 47.828C196.342 47.604 196.778 47.268 197.202 46.82V44.744ZM190.41 39.404C191.826 38.108 193.53 37.46 195.522 37.46C196.242 37.46 196.886 37.58 197.454 37.82C198.022 38.052 198.502 38.38 198.894 38.804C199.286 39.22 199.582 39.72 199.782 40.304C199.99 40.888 200.094 41.528 200.094 42.224V50H198.75C198.47 50 198.254 49.96 198.102 49.88C197.95 49.792 197.83 49.62 197.742 49.364L197.478 48.476C197.166 48.756 196.862 49.004 196.566 49.22C196.27 49.428 195.962 49.604 195.642 49.748C195.322 49.892 194.978 50 194.61 50.072C194.25 50.152 193.85 50.192 193.41 50.192C192.89 50.192 192.41 50.124 191.97 49.988C191.53 49.844 191.15 49.632 190.83 49.352C190.51 49.072 190.262 48.724 190.086 48.308C189.91 47.892 189.822 47.408 189.822 46.856C189.822 46.544 189.874 46.236 189.978 45.932C190.082 45.62 190.25 45.324 190.482 45.044C190.722 44.764 191.03 44.5 191.406 44.252C191.782 44.004 192.242 43.788 192.786 43.604C193.338 43.42 193.978 43.272 194.706 43.16C195.434 43.04 196.266 42.968 197.202 42.944V42.224C197.202 41.4 197.026 40.792 196.674 40.4C196.322 40 195.814 39.8 195.15 39.8C194.67 39.8 194.27 39.856 193.95 39.968C193.638 40.08 193.362 40.208 193.122 40.352C192.882 40.488 192.662 40.612 192.462 40.724C192.27 40.836 192.054 40.892 191.814 40.892C191.606 40.892 191.43 40.84 191.286 40.736C191.142 40.624 191.026 40.496 190.938 40.352L190.41 39.404ZM210.398 40.088C210.318 40.216 210.234 40.308 210.146 40.364C210.058 40.412 209.946 40.436 209.81 40.436C209.666 40.436 209.51 40.396 209.342 40.316C209.182 40.236 208.994 40.148 208.778 40.052C208.562 39.948 208.314 39.856 208.034 39.776C207.762 39.696 207.438 39.656 207.062 39.656C206.478 39.656 206.018 39.78 205.682 40.028C205.354 40.276 205.19 40.6 205.19 41C205.19 41.264 205.274 41.488 205.442 41.672C205.618 41.848 205.846 42.004 206.126 42.14C206.414 42.276 206.738 42.4 207.098 42.512C207.458 42.616 207.822 42.732 208.19 42.86C208.566 42.988 208.934 43.136 209.294 43.304C209.654 43.464 209.974 43.672 210.254 43.928C210.542 44.176 210.77 44.476 210.938 44.828C211.114 45.18 211.202 45.604 211.202 46.1C211.202 46.692 211.094 47.24 210.878 47.744C210.67 48.24 210.358 48.672 209.942 49.04C209.526 49.4 209.01 49.684 208.394 49.892C207.786 50.092 207.082 50.192 206.282 50.192C205.858 50.192 205.442 50.152 205.034 50.072C204.634 50 204.246 49.896 203.87 49.76C203.502 49.624 203.158 49.464 202.838 49.28C202.526 49.096 202.25 48.896 202.01 48.68L202.694 47.552C202.782 47.416 202.886 47.312 203.006 47.24C203.126 47.168 203.278 47.132 203.462 47.132C203.646 47.132 203.818 47.184 203.978 47.288C204.146 47.392 204.338 47.504 204.554 47.624C204.77 47.744 205.022 47.856 205.31 47.96C205.606 48.064 205.978 48.116 206.426 48.116C206.778 48.116 207.078 48.076 207.326 47.996C207.582 47.908 207.79 47.796 207.95 47.66C208.118 47.524 208.238 47.368 208.31 47.192C208.39 47.008 208.43 46.82 208.43 46.628C208.43 46.34 208.342 46.104 208.166 45.92C207.998 45.736 207.77 45.576 207.482 45.44C207.202 45.304 206.878 45.184 206.51 45.08C206.15 44.968 205.778 44.848 205.394 44.72C205.018 44.592 204.646 44.444 204.278 44.276C203.918 44.1 203.594 43.88 203.306 43.616C203.026 43.352 202.798 43.028 202.622 42.644C202.454 42.26 202.37 41.796 202.37 41.252C202.37 40.748 202.47 40.268 202.67 39.812C202.87 39.356 203.162 38.96 203.546 38.624C203.938 38.28 204.422 38.008 204.998 37.808C205.582 37.6 206.254 37.496 207.014 37.496C207.862 37.496 208.634 37.636 209.33 37.916C210.026 38.196 210.606 38.564 211.07 39.02L210.398 40.088ZM221.365 42.428C221.365 42.044 221.309 41.684 221.197 41.348C221.093 41.004 220.933 40.704 220.717 40.448C220.501 40.192 220.225 39.992 219.889 39.848C219.561 39.696 219.177 39.62 218.737 39.62C217.881 39.62 217.205 39.864 216.709 40.352C216.221 40.84 215.909 41.532 215.773 42.428H221.365ZM215.713 44.216C215.761 44.848 215.873 45.396 216.049 45.86C216.225 46.316 216.457 46.696 216.745 47C217.033 47.296 217.373 47.52 217.765 47.672C218.165 47.816 218.605 47.888 219.085 47.888C219.565 47.888 219.977 47.832 220.321 47.72C220.673 47.608 220.977 47.484 221.233 47.348C221.497 47.212 221.725 47.088 221.917 46.976C222.117 46.864 222.309 46.808 222.493 46.808C222.741 46.808 222.925 46.9 223.045 47.084L223.897 48.164C223.569 48.548 223.201 48.872 222.793 49.136C222.385 49.392 221.957 49.6 221.509 49.76C221.069 49.912 220.617 50.02 220.153 50.084C219.697 50.148 219.253 50.18 218.821 50.18C217.965 50.18 217.169 50.04 216.433 49.76C215.697 49.472 215.057 49.052 214.513 48.5C213.969 47.94 213.541 47.252 213.229 46.436C212.917 45.612 212.761 44.66 212.761 43.58C212.761 42.74 212.897 41.952 213.169 41.216C213.441 40.472 213.829 39.828 214.333 39.284C214.845 38.732 215.465 38.296 216.193 37.976C216.929 37.656 217.757 37.496 218.677 37.496C219.453 37.496 220.169 37.62 220.825 37.868C221.481 38.116 222.045 38.48 222.517 38.96C222.989 39.432 223.357 40.016 223.621 40.712C223.893 41.4 224.029 42.188 224.029 43.076C224.029 43.524 223.981 43.828 223.885 43.988C223.789 44.14 223.605 44.216 223.333 44.216H215.713ZM229.217 46.808C229.553 47.216 229.917 47.504 230.309 47.672C230.709 47.84 231.129 47.924 231.569 47.924C232.025 47.924 232.433 47.844 232.793 47.684C233.161 47.516 233.473 47.26 233.729 46.916C233.985 46.564 234.181 46.12 234.317 45.584C234.453 45.04 234.521 44.392 234.521 43.64C234.521 42.288 234.297 41.312 233.849 40.712C233.401 40.104 232.757 39.8 231.917 39.8C231.349 39.8 230.853 39.932 230.429 40.196C230.005 40.452 229.601 40.816 229.217 41.288V46.808ZM229.217 39.2C229.713 38.68 230.261 38.268 230.861 37.964C231.469 37.652 232.161 37.496 232.937 37.496C233.649 37.496 234.289 37.636 234.857 37.916C235.433 38.196 235.921 38.6 236.321 39.128C236.729 39.648 237.041 40.28 237.257 41.024C237.473 41.768 237.581 42.604 237.581 43.532C237.581 44.532 237.457 45.44 237.209 46.256C236.961 47.072 236.605 47.772 236.141 48.356C235.685 48.932 235.133 49.38 234.485 49.7C233.837 50.02 233.117 50.18 232.325 50.18C231.941 50.18 231.593 50.14 231.281 50.06C230.969 49.988 230.681 49.884 230.417 49.748C230.153 49.612 229.909 49.448 229.685 49.256C229.469 49.056 229.261 48.836 229.061 48.596L228.929 49.424C228.881 49.632 228.797 49.78 228.677 49.868C228.565 49.956 228.409 50 228.209 50H226.253V32.168H229.217V39.2ZM246.374 44.744C245.518 44.784 244.798 44.86 244.214 44.972C243.63 45.076 243.162 45.212 242.81 45.38C242.458 45.548 242.206 45.744 242.054 45.968C241.902 46.192 241.826 46.436 241.826 46.7C241.826 47.22 241.978 47.592 242.282 47.816C242.594 48.04 242.998 48.152 243.494 48.152C244.102 48.152 244.626 48.044 245.066 47.828C245.514 47.604 245.95 47.268 246.374 46.82V44.744ZM239.582 39.404C240.998 38.108 242.702 37.46 244.694 37.46C245.414 37.46 246.058 37.58 246.626 37.82C247.194 38.052 247.674 38.38 248.066 38.804C248.458 39.22 248.754 39.72 248.954 40.304C249.162 40.888 249.266 41.528 249.266 42.224V50H247.922C247.642 50 247.426 49.96 247.274 49.88C247.122 49.792 247.002 49.62 246.914 49.364L246.65 48.476C246.338 48.756 246.034 49.004 245.738 49.22C245.442 49.428 245.134 49.604 244.814 49.748C244.494 49.892 244.15 50 243.782 50.072C243.422 50.152 243.022 50.192 242.582 50.192C242.062 50.192 241.582 50.124 241.142 49.988C240.702 49.844 240.322 49.632 240.002 49.352C239.682 49.072 239.434 48.724 239.258 48.308C239.082 47.892 238.994 47.408 238.994 46.856C238.994 46.544 239.046 46.236 239.15 45.932C239.254 45.62 239.422 45.324 239.654 45.044C239.894 44.764 240.202 44.5 240.578 44.252C240.954 44.004 241.414 43.788 241.958 43.604C242.51 43.42 243.15 43.272 243.878 43.16C244.606 43.04 245.438 42.968 246.374 42.944V42.224C246.374 41.4 246.198 40.792 245.846 40.4C245.494 40 244.986 39.8 244.322 39.8C243.842 39.8 243.442 39.856 243.122 39.968C242.81 40.08 242.534 40.208 242.294 40.352C242.054 40.488 241.834 40.612 241.634 40.724C241.442 40.836 241.226 40.892 240.986 40.892C240.778 40.892 240.602 40.84 240.458 40.736C240.314 40.624 240.198 40.496 240.11 40.352L239.582 39.404ZM255.058 32.168V50H252.094V32.168H255.058ZM261.011 32.168V50H258.047V32.168H261.011Z" fill="#454545"/>
</svg>
