<svg width="76" height="21" viewBox="0 0 76 21" fill="none" xmlns="http://www.w3.org/2000/svg">
<path d="M7.51469 3.44L3.38669 3.584L2.54669 8.6H0.962688L1.37069 2.168H16.3227L16.6107 8.6H15.0987L14.3067 3.584L10.1547 3.44V18.584L13.5627 18.824V20H4.39469V18.824L7.51469 18.584V3.44ZM21.0839 4.28C20.5719 4.28 20.1879 4.136 19.9319 3.848C19.6759 3.56 19.5479 3.192 19.5479 2.744C19.5479 2.232 19.6999 1.808 20.0039 1.472C20.3239 1.136 20.7559 0.967999 21.2999 0.967999C21.8439 0.967999 22.2439 1.112 22.4999 1.4C22.7559 1.688 22.8839 2.056 22.8839 2.504C22.8839 3.048 22.7239 3.48 22.4039 3.8C22.0999 4.12 21.6679 4.28 21.1079 4.28H21.0839ZM20.1239 8.528L18.2999 8.096V6.824L22.0199 6.368H22.0679L22.6199 6.8V18.632L24.5399 18.824V20H18.1799V18.824L20.1239 18.608V8.528ZM30.3481 20.24C29.4361 20.24 28.7561 20.032 28.3081 19.616C27.8601 19.2 27.6361 18.488 27.6361 17.48V8.264H25.9081V7.184C25.9881 7.168 26.2121 7.112 26.5801 7.016C26.9481 6.92 27.1961 6.832 27.3241 6.752C27.5801 6.608 27.7801 6.32 27.9241 5.888C28.0521 5.584 28.2041 5.096 28.3801 4.424C28.5561 3.752 28.6601 3.352 28.6921 3.224H30.1081L30.1561 6.68H34.1641V8.264H30.1561V15.632C30.1561 16.544 30.1801 17.184 30.2281 17.552C30.2921 17.92 30.4121 18.16 30.5881 18.272C30.7801 18.384 31.1001 18.44 31.5481 18.44C31.9801 18.44 32.4521 18.384 32.9641 18.272C33.4921 18.16 33.9001 18.04 34.1881 17.912L34.5481 18.992C34.1641 19.28 33.5401 19.56 32.6761 19.832C31.8281 20.104 31.0521 20.24 30.3481 20.24ZM36.0175 16.4C36.0175 14.896 36.7695 13.792 38.2735 13.088C39.7775 12.368 41.6815 11.984 43.9855 11.936V11.264C43.9855 10.512 43.9055 9.92 43.7455 9.488C43.5855 9.056 43.3055 8.744 42.9055 8.552C42.5215 8.344 41.9695 8.24 41.2495 8.24C40.4335 8.24 39.6975 8.36 39.0415 8.6C38.4015 8.824 37.7615 9.104 37.1215 9.44L36.5215 8.192C36.7295 8.016 37.1135 7.784 37.6735 7.496C38.2335 7.208 38.8815 6.952 39.6175 6.728C40.3535 6.504 41.0895 6.392 41.8255 6.392C42.9615 6.392 43.8575 6.552 44.5135 6.872C45.1855 7.176 45.6655 7.672 45.9535 8.36C46.2415 9.048 46.3855 9.968 46.3855 11.12V18.824H47.8015V19.88C47.4815 19.96 47.0735 20.04 46.5775 20.12C46.0975 20.2 45.6735 20.24 45.3055 20.24C44.8575 20.24 44.5535 20.168 44.3935 20.024C44.2335 19.896 44.1535 19.6 44.1535 19.136V18.344C43.6735 18.824 43.0815 19.264 42.3775 19.664C41.6895 20.064 40.9055 20.264 40.0255 20.264C38.8735 20.264 37.9135 19.936 37.1455 19.28C36.3935 18.608 36.0175 17.648 36.0175 16.4ZM41.0575 18.632C41.4735 18.632 41.9535 18.504 42.4975 18.248C43.0415 17.992 43.5375 17.688 43.9855 17.336V13.208C42.2415 13.208 40.9215 13.48 40.0255 14.024C39.1455 14.552 38.7055 15.248 38.7055 16.112C38.7055 16.976 38.9135 17.616 39.3295 18.032C39.7615 18.432 40.3375 18.632 41.0575 18.632ZM50.9106 8.528L49.1826 8.096V6.8L52.6146 6.368H52.6866L53.1906 6.8V7.808L53.1666 8.384C53.7426 7.872 54.5026 7.408 55.4466 6.992C56.3906 6.576 57.2946 6.368 58.1586 6.368C59.1666 6.368 59.9426 6.56 60.4866 6.944C61.0466 7.328 61.4386 7.92 61.6626 8.72C61.8866 9.504 61.9986 10.568 61.9986 11.912V18.632L63.6786 18.8V20H57.9906V18.824L59.4786 18.632V11.888C59.4786 10.944 59.4146 10.208 59.2866 9.68C59.1586 9.136 58.9186 8.736 58.5666 8.48C58.2146 8.208 57.7026 8.072 57.0306 8.072C56.4546 8.072 55.8386 8.216 55.1826 8.504C54.5266 8.792 53.9426 9.128 53.4306 9.512V18.608L55.0626 18.824V20H49.3986V18.824L50.9106 18.608V8.528ZM67.6401 18.08C67.8001 18.32 68.1361 18.536 68.6481 18.728C69.1761 18.92 69.7281 19.016 70.3041 19.016C71.2161 19.016 71.8881 18.84 72.3201 18.488C72.7521 18.136 72.9681 17.648 72.9681 17.024C72.9681 16.592 72.8321 16.216 72.5601 15.896C72.2881 15.576 71.9041 15.296 71.4081 15.056C70.9281 14.8 70.2321 14.496 69.3201 14.144C68.0881 13.68 67.1841 13.128 66.6081 12.488C66.0481 11.832 65.7681 10.976 65.7681 9.92C65.7681 9.216 65.9761 8.6 66.3921 8.072C66.8241 7.544 67.4081 7.136 68.1441 6.848C68.8961 6.544 69.7281 6.392 70.6401 6.392C71.3761 6.392 72.0161 6.448 72.5601 6.56C73.1201 6.672 73.5681 6.784 73.9041 6.896C74.2401 7.008 74.4641 7.08 74.5761 7.112V10.088H73.1121L72.6321 8.312C72.5361 8.12 72.2801 7.96 71.8641 7.832C71.4481 7.688 70.9841 7.616 70.4721 7.616C69.7521 7.616 69.1681 7.776 68.7201 8.096C68.2881 8.416 68.0721 8.848 68.0721 9.392C68.0721 9.872 68.1841 10.272 68.4081 10.592C68.6481 10.896 68.9441 11.144 69.2961 11.336C69.6481 11.528 70.1281 11.752 70.7361 12.008L71.2161 12.2C72.1121 12.552 72.8401 12.888 73.4001 13.208C73.9601 13.528 74.4241 13.952 74.7921 14.48C75.1761 14.992 75.3681 15.624 75.3681 16.376C75.3681 17.56 74.9041 18.504 73.9761 19.208C73.0641 19.912 71.8081 20.264 70.2081 20.264C69.4241 20.264 68.6001 20.16 67.7361 19.952C66.8881 19.728 66.1921 19.504 65.6481 19.28V16.208H67.2081L67.6401 18.08Z" fill="#454545"/>
</svg>
