<svg width="24" height="24" viewBox="0 0 24 24" fill="none" xmlns="http://www.w3.org/2000/svg">
<g clip-path="url(#clip0_1253_516)">
<path d="M22.1539 3.6919C21.2699 4.31542 20.2912 4.79231 19.2554 5.10421C18.6995 4.46499 17.9607 4.01192 17.1388 3.80629C16.317 3.60066 15.4519 3.65239 14.6604 3.95447C13.869 4.25656 13.1894 4.79442 12.7136 5.49533C12.2378 6.19624 11.9887 7.02636 12 7.87344V8.79651C10.3779 8.83858 8.77044 8.4788 7.32097 7.74923C5.87149 7.01966 4.62495 5.94295 3.69235 4.61498C3.69235 4.61498 3.74317e-05 12.9227 8.30773 16.615C6.40668 17.9054 4.14203 18.5524 1.84619 18.4611C10.1539 23.0765 20.3077 18.4611 20.3077 7.84575C20.3069 7.58863 20.2822 7.33214 20.2339 7.07959C21.176 6.15051 21.8408 4.97748 22.1539 3.6919Z" stroke="#F8F8F8" stroke-width="2" stroke-linecap="round" stroke-linejoin="round"/>
</g>
<defs>
<clipPath id="clip0_1253_516">
<rect width="22.1538" height="22.1538" fill="white" transform="translate(0.923096 0.922852)"/>
</clipPath>
</defs>
</svg>
